<?xml version="1.0" encoding="UTF-8" standalone="no"?>
<!DOCTYPE svg PUBLIC "-//W3C//DTD SVG 1.1//EN"
 "http://www.w3.org/Graphics/SVG/1.1/DTD/svg11.dtd">
<!-- Generated by graphviz version 15.1.1 (20260805.0921)
 -->
<!-- Title: firmware/configs/app_config.h Pages: 1 -->
<!--zoomable 108 -->

<svg id="main" version="1.1" xmlns="http://www.w3.org/2000/svg" xmlns:xlink="http://www.w3.org/1999/xlink" xml:space="preserve" onload="init(evt)">

<style type="text/css"><![CDATA[
.node, .edge {opacity: 0.7;}
.node.selected, .edge.selected {opacity: 1;}
.edge:hover path { stroke: red; }
.edge:hover polygon { stroke: red; fill: red; }
]]></style>

<defs>
  <circle id="rim" cx="0" cy="0" r="7"/>
  <circle id="rim2" cx="0" cy="0" r="3.5"/>
  <g id="zoomPlus">
    <use xlink:href="#rim" fill="#404040"><set attributeName="fill" to="#808080" begin="zoomplus.mouseover" end="zoomplus.mouseout"/></use>
    <path d="M-4,0h8M0,-4v8" fill="none" stroke="white" stroke-width="1.5" pointer-events="none"/>
  </g>
  <g id="zoomMin">
    <use xlink:href="#rim" fill="#404040"><set attributeName="fill" to="#808080" begin="zoomminus.mouseover" end="zoomminus.mouseout"/></use>
    <path d="M-4,0h8" fill="none" stroke="white" stroke-width="1.5" pointer-events="none"/>
  </g>
  <g id="arrowUp" transform="translate(30 24)">
    <use xlink:href="#rim"/>
    <path pointer-events="none" fill="none" stroke="white" stroke-width="1.5" d="M0,-3.0v7 M-2.5,-0.5L0,-3.0L2.5,-0.5"/>
  </g>
  <g id="arrowRight" transform="rotate(90) translate(36 -43)">
    <use xlink:href="#rim"/>
    <path pointer-events="none" fill="none" stroke="white" stroke-width="1.5" d="M0,-3.0v7 M-2.5,-0.5L0,-3.0L2.5,-0.5"/>
  </g>
  <g id="arrowDown" transform="rotate(180) translate(-30 -48)">
    <use xlink:href="#rim"/>
    <path pointer-events="none" fill="none" stroke="white" stroke-width="1.5" d="M0,-3.0v7 M-2.5,-0.5L0,-3.0L2.5,-0.5"/>
  </g>
  <g id="arrowLeft" transform="rotate(270) translate(-36 17)">
    <use xlink:href="#rim"/>
    <path pointer-events="none" fill="none" stroke="white" stroke-width="1.5" d="M0,-3.0v7 M-2.5,-0.5L0,-3.0L2.5,-0.5"/>
  </g>
  <g id="resetDef">
    <use xlink:href="#rim2" fill="#404040"><set attributeName="fill" to="#808080" begin="reset.mouseover" end="reset.mouseout"/></use>
  </g>
</defs>
<script type="application/ecmascript">
var viewWidth = 816;
var viewHeight = 108;
var sectionId = 'dynsection-0';
</script>
<script type="application/ecmascript" xlink:href="svg.min.js"/>
<svg id="graph" class="graph">
<g id="viewport">
<title>firmware/configs/app_config.h</title>
<!-- Node1 -->
<g id="Node000001" class="node">
<title>Node1</title>
<g id="a_Node000001"><a xlink:title=" ">
<polygon fill="#999999" stroke="#666666" points="453,-100 346.25,-100 346.25,-68 453,-68 453,-100"/>
<text xml:space="preserve" text-anchor="start" x="354.25" y="-86.5" font-family="Helvetica,sans-Serif" font-size="10.00">firmware/configs/app</text>
<text xml:space="preserve" text-anchor="middle" x="399.62" y="-74.5" font-family="Helvetica,sans-Serif" font-size="10.00">_config.h</text>
</a>
</g>
</g>
<!-- Node2 -->
<g id="Node000002" class="node">
<title>Node2</title>
<g id="a_Node000002"><a xlink:href="app_8c.html" target="_top" xlink:title=" ">
<polygon fill="white" stroke="#666666" points="99.25,-26 0,-26 0,-6 99.25,-6 99.25,-26"/>
<text xml:space="preserve" text-anchor="middle" x="49.62" y="-12.5" font-family="Helvetica,sans-Serif" font-size="10.00">firmware/app/app.c</text>
</a>
</g>
</g>
<!-- Node1&#45;&gt;Node2 -->
<g id="edge1_Node000001_Node000002" class="edge">
<title>Node1&#45;&gt;Node2</title>
<g id="a_edge1_Node000001_Node000002"><a xlink:title=" ">
<path fill="none" stroke="#63b8ff" d="M334.74,-73.2C275.38,-63.87 185.24,-48.79 107.62,-32 100.1,-30.37 92.08,-28.43 84.48,-26.5"/>
<polygon fill="#63b8ff" stroke="#63b8ff" points="333.91,-76.61 344.33,-74.69 334.99,-69.69 333.91,-76.61"/>
</a>
</g>
</g>
<!-- Node3 -->
<g id="Node000003" class="node">
<title>Node3</title>
<g id="a_Node000003"><a xlink:href="classifier_8c.html" target="_top" xlink:title=" ">
<polygon fill="white" stroke="#666666" points="260.38,-26 116.88,-26 116.88,-6 260.38,-6 260.38,-26"/>
<text xml:space="preserve" text-anchor="middle" x="188.62" y="-12.5" font-family="Helvetica,sans-Serif" font-size="10.00">firmware/services/classifier.c</text>
</a>
</g>
</g>
<!-- Node1&#45;&gt;Node3 -->
<g id="edge2_Node000001_Node000003" class="edge">
<title>Node1&#45;&gt;Node3</title>
<g id="a_edge2_Node000001_Node000003"><a xlink:title=" ">
<path fill="none" stroke="#63b8ff" d="M339.34,-64.14C299.95,-51.82 250.18,-36.26 218.87,-26.46"/>
<polygon fill="#63b8ff" stroke="#63b8ff" points="338.12,-67.43 348.71,-67.07 340.21,-60.75 338.12,-67.43"/>
</a>
</g>
</g>
<!-- Node4 -->
<g id="Node000004" class="node">
<title>Node4</title>
<g id="a_Node000004"><a xlink:href="led__controller_8c.html" target="_top" xlink:title=" ">
<polygon fill="white" stroke="#666666" points="387.12,-32 278.12,-32 278.12,0 387.12,0 387.12,-32"/>
<text xml:space="preserve" text-anchor="start" x="286.12" y="-18.5" font-family="Helvetica,sans-Serif" font-size="10.00">firmware/services/led</text>
<text xml:space="preserve" text-anchor="middle" x="332.62" y="-6.5" font-family="Helvetica,sans-Serif" font-size="10.00">_controller.c</text>
</a>
</g>
</g>
<!-- Node1&#45;&gt;Node4 -->
<g id="edge3_Node000001_Node000004" class="edge">
<title>Node1&#45;&gt;Node4</title>
<g id="a_edge3_Node000001_Node000004"><a xlink:title=" ">
<path fill="none" stroke="#63b8ff" d="M375.98,-59.71C366.72,-50.59 356.35,-40.37 348.08,-32.22"/>
<polygon fill="#63b8ff" stroke="#63b8ff" points="373.43,-62.11 383.01,-66.63 378.34,-57.12 373.43,-62.11"/>
</a>
</g>
</g>
<!-- Node5 -->
<g id="Node000005" class="node">
<title>Node5</title>
<g id="a_Node000005"><a xlink:href="sensor__driver_8c.html" target="_top" xlink:title=" ">
<polygon fill="white" stroke="#666666" points="530.38,-32 404.88,-32 404.88,0 530.38,0 530.38,-32"/>
<text xml:space="preserve" text-anchor="start" x="412.88" y="-18.5" font-family="Helvetica,sans-Serif" font-size="10.00">firmware/services/sensor</text>
<text xml:space="preserve" text-anchor="middle" x="467.62" y="-6.5" font-family="Helvetica,sans-Serif" font-size="10.00">_driver.c</text>
</a>
</g>
</g>
<!-- Node1&#45;&gt;Node5 -->
<g id="edge4_Node000001_Node000005" class="edge">
<title>Node1&#45;&gt;Node5</title>
<g id="a_edge4_Node000001_Node000005"><a xlink:title=" ">
<path fill="none" stroke="#63b8ff" d="M423.62,-59.71C433.02,-50.59 443.54,-40.37 451.94,-32.22"/>
<polygon fill="#63b8ff" stroke="#63b8ff" points="421.22,-57.16 416.48,-66.64 426.1,-62.18 421.22,-57.16"/>
</a>
</g>
</g>
<!-- Node6 -->
<g id="Node000006" class="node">
<title>Node6</title>
<g id="a_Node000006"><a xlink:href="sentinel__config_8c.html" target="_top" xlink:title=" ">
<polygon fill="white" stroke="#666666" points="678.62,-32 548.62,-32 548.62,0 678.62,0 678.62,-32"/>
<text xml:space="preserve" text-anchor="start" x="556.62" y="-18.5" font-family="Helvetica,sans-Serif" font-size="10.00">firmware/services/sentinel</text>
<text xml:space="preserve" text-anchor="middle" x="613.62" y="-6.5" font-family="Helvetica,sans-Serif" font-size="10.00">_config.c</text>
</a>
</g>
</g>
<!-- Node1&#45;&gt;Node6 -->
<g id="edge5_Node000001_Node000006" class="edge">
<title>Node1&#45;&gt;Node6</title>
<g id="a_edge5_Node000001_Node000006"><a xlink:title=" ">
<path fill="none" stroke="#63b8ff" d="M460.54,-64.21C493.08,-54.18 532.64,-41.98 563.4,-32.49"/>
<polygon fill="#63b8ff" stroke="#63b8ff" points="459.77,-60.79 451.24,-67.08 461.83,-67.48 459.77,-60.79"/>
</a>
</g>
</g>
<!-- Node7 -->
<g id="Node000007" class="node">
<title>Node7</title>
<g id="a_Node000007"><a xlink:href="wifi__service_8c.html" target="_top" xlink:title=" ">
<polygon fill="white" stroke="#666666" points="808.25,-32 697,-32 697,0 808.25,0 808.25,-32"/>
<text xml:space="preserve" text-anchor="start" x="705" y="-18.5" font-family="Helvetica,sans-Serif" font-size="10.00">firmware/services/wifi</text>
<text xml:space="preserve" text-anchor="middle" x="752.62" y="-6.5" font-family="Helvetica,sans-Serif" font-size="10.00">_service.c</text>
</a>
</g>
</g>
<!-- Node1&#45;&gt;Node7 -->
<g id="edge6_Node000001_Node000007" class="edge">
<title>Node1&#45;&gt;Node7</title>
<g id="a_edge6_Node000001_Node000007"><a xlink:title=" ">
<path fill="none" stroke="#63b8ff" d="M464.68,-72.46C523.17,-62.76 611.36,-47.54 687.62,-32 690.58,-31.4 693.6,-30.76 696.65,-30.11"/>
<polygon fill="#63b8ff" stroke="#63b8ff" points="464.18,-69 454.89,-74.08 465.32,-75.9 464.18,-69"/>
</a>
</g>
</g>
</g>
</svg>

<g id="navigator" transform="translate(0 0)" fill="#404254">
  <rect fill="#f2f5e9" fill-opacity="0.5" stroke="#606060" stroke-width=".5" x="0" y="0" width="60" height="60"/>
  <use id="zoomplus" xlink:href="#zoomPlus" x="17" y="9" onmousedown="handleZoom(evt,'in')"/>
  <use id="zoomminus" xlink:href="#zoomMin" x="42" y="9" onmousedown="handleZoom(evt,'out')"/>
  <use id="reset" xlink:href="#resetDef" x="30" y="36" onmousedown="handleReset()"/>
   <use id="arrowup" xlink:href="#arrowUp" x="0" y="0" onmousedown="handlePan(0,-1)"/>
  <use id="arrowright" xlink:href="#arrowRight" x="0" y="0" onmousedown="handlePan(1,0)"/>
  <use id="arrowdown" xlink:href="#arrowDown" x="0" y="0" onmousedown="handlePan(0,1)"/>
  <use id="arrowleft" xlink:href="#arrowLeft" x="0" y="0" onmousedown="handlePan(-1,0)"/>
</g>
<svg viewBox="0 0 15 15" width="100%" height="30px" preserveAspectRatio="xMaxYMin meet">
 <g id="arrow_out" transform="scale(0.3 0.3)">
  <a xlink:href="app__config_8h__dep__incl_org.svg" target="_base">
   <rect id="button" ry="5" rx="5" y="6" x="6" height="38" width="38"
        fill="#f2f5e9" fill-opacity="0.5" stroke="#606060" stroke-width="1.0"/>
   <path id="arrow"
     d="M 11.500037,31.436501 C 11.940474,20.09759 22.043105,11.32322 32.158766,21.979434 L 37.068811,17.246167 C 37.068811,17.246167 37.088388,32 37.088388,32 L 22.160133,31.978069 C 22.160133,31.978069 26.997745,27.140456 26.997745,27.140456 C 18.528582,18.264221 13.291696,25.230495 11.500037,31.436501 z"
     style="fill:#404040;"/>
  </a>
 </g>
</svg>

<style type='text/css'>
<![CDATA[
[data-mouse-over-selected='false'] { opacity: 0.7; }
[data-mouse-over-selected='true']  { opacity: 1.0; }
]]>
</style>
<script type="application/ecmascript"><![CDATA[
document.addEventListener('DOMContentLoaded', (event) => {
  highlightEdges();
  highlightAdjacentNodes();
});
]]></script>
</svg>
