<?xml version="1.0" encoding="UTF-8" standalone="no"?>
<!DOCTYPE svg PUBLIC "-//W3C//DTD SVG 1.1//EN"
 "http://www.w3.org/Graphics/SVG/1.1/DTD/svg11.dtd">
<!-- Generated by graphviz version 15.1.1 (20260805.0921)
 -->
<!-- Title: firmware/services/sentinel_config.h Pages: 1 -->
<svg width="549pt" height="108pt"
 viewBox="0.00 0.00 549.00 108.00" xmlns="http://www.w3.org/2000/svg" xmlns:xlink="http://www.w3.org/1999/xlink">
<g id="graph0" class="graph" transform="scale(1 1) rotate(0) translate(4 104)">
<title>firmware/services/sentinel_config.h</title>
<!-- Node1 -->
<g id="Node000001" class="node">
<title>Node1</title>
<g id="a_Node000001"><a xlink:title=" ">
<polygon fill="#999999" stroke="#666666" points="330.62,-100 200.62,-100 200.62,-68 330.62,-68 330.62,-100"/>
<text xml:space="preserve" text-anchor="start" x="208.62" y="-86.5" font-family="Helvetica,sans-Serif" font-size="10.00">firmware/services/sentinel</text>
<text xml:space="preserve" text-anchor="middle" x="265.62" y="-74.5" font-family="Helvetica,sans-Serif" font-size="10.00">_config.h</text>
</a>
</g>
</g>
<!-- Node2 -->
<g id="Node000002" class="node">
<title>Node2</title>
<g id="a_Node000002"><a xlink:href="app_8c.html" target="_top" xlink:title=" ">
<polygon fill="white" stroke="#666666" points="99.25,-26 0,-26 0,-6 99.25,-6 99.25,-26"/>
<text xml:space="preserve" text-anchor="middle" x="49.62" y="-12.5" font-family="Helvetica,sans-Serif" font-size="10.00">firmware/app/app.c</text>
</a>
</g>
</g>
<!-- Node1&#45;&gt;Node2 -->
<g id="edge1_Node000001_Node000002" class="edge">
<title>Node1&#45;&gt;Node2</title>
<g id="a_edge1_Node000001_Node000002"><a xlink:title=" ">
<path fill="none" stroke="#63b8ff" d="M204.17,-64.22C163.81,-51.89 112.71,-36.28 80.59,-26.46"/>
<polygon fill="#63b8ff" stroke="#63b8ff" points="202.95,-67.51 213.54,-67.08 204.99,-60.81 202.95,-67.51"/>
</a>
</g>
</g>
<!-- Node3 -->
<g id="Node000003" class="node">
<title>Node3</title>
<g id="a_Node000003"><a xlink:href="classifier_8c.html" target="_top" xlink:title=" ">
<polygon fill="white" stroke="#666666" points="260.38,-26 116.88,-26 116.88,-6 260.38,-6 260.38,-26"/>
<text xml:space="preserve" text-anchor="middle" x="188.62" y="-12.5" font-family="Helvetica,sans-Serif" font-size="10.00">firmware/services/classifier.c</text>
</a>
</g>
</g>
<!-- Node1&#45;&gt;Node3 -->
<g id="edge2_Node000001_Node000003" class="edge">
<title>Node1&#45;&gt;Node3</title>
<g id="a_edge2_Node000001_Node000003"><a xlink:title=" ">
<path fill="none" stroke="#63b8ff" d="M239.23,-60.38C225.63,-48.72 209.78,-35.13 199.49,-26.32"/>
<polygon fill="#63b8ff" stroke="#63b8ff" points="236.75,-62.86 246.62,-66.71 241.3,-57.54 236.75,-62.86"/>
</a>
</g>
</g>
<!-- Node4 -->
<g id="Node000004" class="node">
<title>Node4</title>
<g id="a_Node000004"><a xlink:href="sentinel__config_8c.html" target="_top" xlink:title=" ">
<polygon fill="white" stroke="#666666" points="408.62,-32 278.62,-32 278.62,0 408.62,0 408.62,-32"/>
<text xml:space="preserve" text-anchor="start" x="286.62" y="-18.5" font-family="Helvetica,sans-Serif" font-size="10.00">firmware/services/sentinel</text>
<text xml:space="preserve" text-anchor="middle" x="343.62" y="-6.5" font-family="Helvetica,sans-Serif" font-size="10.00">_config.c</text>
</a>
</g>
</g>
<!-- Node1&#45;&gt;Node4 -->
<g id="edge3_Node000001_Node000004" class="edge">
<title>Node1&#45;&gt;Node4</title>
<g id="a_edge3_Node000001_Node000004"><a xlink:title=" ">
<path fill="none" stroke="#63b8ff" d="M292.43,-60.32C303.29,-51.13 315.56,-40.75 325.36,-32.45"/>
<polygon fill="#63b8ff" stroke="#63b8ff" points="290.24,-57.58 284.87,-66.71 294.77,-62.93 290.24,-57.58"/>
</a>
</g>
</g>
<!-- Node5 -->
<g id="Node000005" class="node">
<title>Node5</title>
<g id="a_Node000005"><a xlink:href="web__server_8c.html" target="_top" xlink:title=" ">
<polygon fill="white" stroke="#666666" points="540.75,-32 426.5,-32 426.5,0 540.75,0 540.75,-32"/>
<text xml:space="preserve" text-anchor="start" x="434.5" y="-18.5" font-family="Helvetica,sans-Serif" font-size="10.00">firmware/services/web</text>
<text xml:space="preserve" text-anchor="middle" x="483.62" y="-6.5" font-family="Helvetica,sans-Serif" font-size="10.00">_server.c</text>
</a>
</g>
</g>
<!-- Node1&#45;&gt;Node5 -->
<g id="edge4_Node000001_Node000005" class="edge">
<title>Node1&#45;&gt;Node5</title>
<g id="a_edge4_Node000001_Node000005"><a xlink:title=" ">
<path fill="none" stroke="#63b8ff" d="M327.68,-64.21C360.82,-54.18 401.13,-41.98 432.46,-32.49"/>
<polygon fill="#63b8ff" stroke="#63b8ff" points="326.74,-60.84 318.18,-67.09 328.77,-67.54 326.74,-60.84"/>
</a>
</g>
</g>
</g>
</svg>
